<svg viewBox="0 0 260 320" xmlns="http://www.w3.org/2000/svg">
  <defs>
    <linearGradient id="suitGrad" x1="0" y1="0" x2="0" y2="1">
      <stop offset="0" stop-color="#f6f7fb"/>
      <stop offset="1" stop-color="#c7cde8"/>
    </linearGradient>
    <linearGradient id="visorGrad" x1="0" y1="0" x2="1" y2="1">
      <stop offset="0" stop-color="#2451ff"/>
      <stop offset="1" stop-color="#e6203f"/>
    </linearGradient>
  </defs>

  <!-- backpack -->
  <rect x="90" y="90" width="80" height="110" rx="18" fill="#0b1340"/>

  <!-- body -->
  <path d="M60 150 C60 110 90 90 130 90 C170 90 200 110 200 150 L195 260 C195 285 165 300 130 300 C95 300 65 285 65 260 Z" fill="url(#suitGrad)"/>

  <!-- chest control panel -->
  <rect x="105" y="175" width="50" height="34" rx="6" fill="#0b1340"/>
  <circle cx="118" cy="192" r="5" fill="#e6203f"/>
  <circle cx="142" cy="192" r="5" fill="#f5b942"/>

  <!-- arms -->
  <path d="M62 160 C40 175 30 210 42 250 C48 265 65 270 72 258 L82 190 Z" fill="url(#suitGrad)"/>
  <path d="M198 160 C220 175 230 210 218 250 C212 265 195 270 188 258 L178 190 Z" fill="url(#suitGrad)"/>

  <!-- helmet -->
  <circle cx="130" cy="70" r="62" fill="url(#suitGrad)"/>
  <circle cx="130" cy="72" r="46" fill="url(#visorGrad)"/>
  <path d="M96 55 C110 40 150 40 164 55" stroke="#ffffff" stroke-width="6" fill="none" opacity="0.35"/>
  <circle cx="112" cy="60" r="8" fill="#ffffff" opacity="0.4"/>
</svg>
