<svg viewBox="0 0 300 300" xmlns="http://www.w3.org/2000/svg">
  <defs>
    <radialGradient id="galCore" cx="0.5" cy="0.5" r="0.5">
      <stop offset="0" stop-color="#ffe28a"/>
      <stop offset="0.4" stop-color="#f5b942"/>
      <stop offset="1" stop-color="#f5b942" stop-opacity="0"/>
    </radialGradient>
    <linearGradient id="armGrad" x1="0" y1="0" x2="1" y2="1">
      <stop offset="0" stop-color="#5c7bff"/>
      <stop offset="1" stop-color="#e6203f"/>
    </linearGradient>
  </defs>
  <circle cx="150" cy="150" r="140" fill="#0b1340" opacity="0.3"/>
  <path d="M150 150 C 190 120 240 130 260 170 C 275 200 260 240 220 250 C 180 260 140 240 130 200"
        fill="none" stroke="url(#armGrad)" stroke-width="14" stroke-linecap="round" opacity="0.85"/>
  <path d="M150 150 C 110 180 60 170 40 130 C 25 100 40 60 80 50 C 120 40 160 60 170 100"
        fill="none" stroke="url(#armGrad)" stroke-width="10" stroke-linecap="round" opacity="0.6"/>
  <circle cx="150" cy="150" r="46" fill="url(#galCore)"/>
  <circle cx="150" cy="150" r="16" fill="#fff8e6"/>
  <g fill="#f6f7fb">
    <circle cx="40" cy="240" r="1.4" opacity="0.7"/>
    <circle cx="260" cy="60" r="1.6" opacity="0.7"/>
    <circle cx="20" cy="60" r="1.2" opacity="0.5"/>
    <circle cx="270" cy="250" r="1.3" opacity="0.6"/>
  </g>
</svg>
